<?xml version="1.0" standalone="no"?><!DOCTYPE svg PUBLIC "-//W3C//DTD SVG 1.1//EN" "http://www.w3.org/Graphics/SVG/1.1/DTD/svg11.dtd"><svg t="1708503097463" class="icon" viewBox="0 0 1024 1024" version="1.1" xmlns="http://www.w3.org/2000/svg" p-id="53748" xmlns:xlink="http://www.w3.org/1999/xlink" width="200" height="200"><path d="M965.666133 775.031467l0.273067-0.136534-97.450667-161.28h42.769067c10.581333 0 19.114667-8.533333 19.114667-19.012266a18.500267 18.500267 0 0 0-4.096-11.195734l0.3072-0.2048-91.921067-121.6512h38.2976c10.581333 0 19.1488-8.4992 19.1488-18.978133a18.7392 18.7392 0 0 0-6.5536-14.097067l0.136533-0.136533-104.7552-118.818133h34.6112c10.581333 0 19.114667-8.533333 19.114667-19.012267a18.909867 18.909867 0 0 0-5.597867-13.4144l-153.156266-152.064a19.114667 19.114667 0 0 0-27.067734 0l-153.122133 152.064a18.909867 18.909867 0 0 0-5.632 13.4144c0 10.513067 8.567467 19.012267 19.1488 19.012267h34.577067l-104.721067 118.818133 0.136533 0.136533a18.705067 18.705067 0 0 0-6.5536 14.097067c0 10.478933 8.533333 18.978133 19.114667 18.978133h38.2976l-91.886933 121.6512 0.273066 0.2048a18.568533 18.568533 0 0 0-4.096 11.195734c0 10.513067 8.567467 19.012267 19.114667 19.012266h42.8032l-97.4848 161.28 0.273067 0.136534a18.397867 18.397867 0 0 0-3.003734 9.6256c0 10.513067 8.567467 19.012267 19.1488 19.012266h210.602667v133.051734c0 10.478933 8.533333 18.978133 19.114667 18.978133h114.858666c10.581333 0 19.1488-8.4992 19.1488-18.978133v-133.051734h210.602667c10.581333 0 19.114667-8.533333 19.114667-19.012266a18.432 18.432 0 0 0-3.003734-9.6256z" fill="#3b8686" p-id="53749" data-spm-anchor-id="a313x.search_index.0.i20.12843a81w19Tem" class=""></path><path d="M782.404267 783.530667l0.3072-0.2048-111.3088-184.149334h48.810666c12.0832 0 21.879467-9.728 21.879467-21.7088a21.162667 21.162667 0 0 0-4.676267-12.8l0.341334-0.238933-104.96-138.922667h43.690666c12.0832 0 21.879467-9.693867 21.879467-21.674666a21.367467 21.367467 0 0 0-7.4752-16.0768l0.136533-0.170667-119.6032-135.68h39.492267c12.0832 0 21.845333-9.728 21.845333-21.7088a21.572267 21.572267 0 0 0-6.382933-15.36l-174.8992-173.636267a21.777067 21.777067 0 0 0-15.4624-6.3488 21.845333 21.845333 0 0 0-15.4624 6.3488L245.6576 214.8352a21.572267 21.572267 0 0 0-6.382933 15.36c0 11.9808 9.762133 21.7088 21.845333 21.7088h39.492267l-119.6032 135.68 0.136533 0.170667a21.367467 21.367467 0 0 0-7.4752 16.042666c0 12.014933 9.796267 21.742933 21.845333 21.742934H239.274667l-104.96 138.922666 0.341333 0.2048a21.1968 21.1968 0 0 0-4.7104 12.8c0 11.9808 9.796267 21.7088 21.845333 21.7088h48.8448l-111.274666 184.149334 0.3072 0.2048a20.992 20.992 0 0 0-3.413334 10.9568c0 12.014933 9.762133 21.7088 21.845334 21.7088h240.469333v151.927466c0 12.014933 9.796267 21.7088 21.845333 21.7088h131.208534c12.049067 0 21.845333-9.693867 21.845333-21.7088v-151.893333h240.503467c12.049067 0 21.845333-9.728 21.845333-21.742933a21.060267 21.060267 0 0 0-3.413333-10.9568z" fill="#3b8686" p-id="53750" data-spm-anchor-id="a313x.search_index.0.i19.12843a81w19Tem" class=""></path></svg>