<?xml version="1.0" standalone="no"?><!DOCTYPE svg PUBLIC "-//W3C//DTD SVG 1.1//EN" "http://www.w3.org/Graphics/SVG/1.1/DTD/svg11.dtd"><svg t="1708706189341" class="icon" viewBox="0 0 8556 1024" version="1.1" xmlns="http://www.w3.org/2000/svg" p-id="4774" xmlns:xlink="http://www.w3.org/1999/xlink" width="3342.1875" height="400"><path d="M993.28 256 1308.16 883.2 1377.28 1024 1536 1024 6656 1024 6760.96 1024 6837.76 949.76 7528.96 256 8555.52 256 8555.52 0 7424 0 6656 768 1536 768 1152 0 0 0 0 256 993.28 256Z" p-id="4775" fill="#7cba59"></path><path d="M3328 512 3840 0 3328 0 2816 512 3328 512Z" p-id="4776" fill="#7cba59"></path><path d="M4352 512 4864 0 4352 0 3840 512 4352 512Z" p-id="4777" fill="#7cba59"></path><path d="M5376 512 5888 0 5376 0 4864 512 5376 512Z" p-id="4778" fill="#7cba59"></path><path d="M2816 0 2304 0 1792 512 2304 512 2816 0Z" p-id="4779" fill="#7cba59"></path><path d="M6400 512 6912 0 6400 0 5888 512 6400 512Z" p-id="4780" fill="#7cba59"></path></svg>