<?xml version="1.0" standalone="no"?><!DOCTYPE svg PUBLIC "-//W3C//DTD SVG 1.1//EN" "http://www.w3.org/Graphics/SVG/1.1/DTD/svg11.dtd"><svg t="1708502902132" class="icon" viewBox="0 0 1024 1024" version="1.1" xmlns="http://www.w3.org/2000/svg" p-id="47241" xmlns:xlink="http://www.w3.org/1999/xlink" width="200" height="200"><path d="M674.433 535.104c58.753-52.097 96.32-131.137 96.32-219.777 0-157.057-117.952-284.224-263.36-284.224-145.537 0-263.488 127.232-263.488 284.224 0 78.784 29.76 150.207 77.825 201.601 5.951 5.696 173.504 160.576 352.704 18.176z m176.638 196.608L707.903 601.279c-53.758 44.032-206.017 136.896-416.576-3.328C227.968 646.717 58.623 786.752 77.44 881.214c0 0 3.328 98.496 182.401 103.297 0 0 533.697 39.424 622.463-52.415-0.129-0.063 96.832-62.528-31.232-200.386z" p-id="47242" fill="#3b8686"></path></svg>